<svg xmlns="http://www.w3.org/2000/svg" xmlns:xlink="http://www.w3.org/1999/xlink" width="100%" height="100%" version="1.1" viewBox="0 0 6198 2862" xml:space="preserve" style="fill-rule:evenodd;clip-rule:evenodd;stroke-linejoin:round;stroke-miterlimit:2"><g transform="matrix(1,0,0,1,-53832.7,-14415.6)"><g id="Artboard11" transform="matrix(1.07275,0,0,1.16573,-4473.67,2178.69)"><rect width="5777.24" height="2455.05" x="54352.5" y="10497.2" style="fill:none"/><g><g><path d="M22552.2,4291.57L23703.2,4291.57C23703.2,4291.57 23739.3,4291.28 23744.8,4291.57L23757.7,4291.57L23757.8,4291.56C23764.8,4291.18 23771.8,4290.26 23778.5,4288.05C23781.9,4286.92 23785.1,4285.38 23788.2,4283.67C23792.9,4281.11 23797.4,4278.09 23801.4,4274.48C23802.9,4273.04 23804.4,4271.51 23805.8,4269.94C23807.4,4268.23 23808.8,4266.47 23810.3,4264.65C23812.2,4262.16 23814,4259.56 23815.7,4256.88C23817,4254.63 23818.3,4252.31 23819.7,4250.07C23822.3,4245.98 23860.4,4182.35 23863.5,4178.62L23786.5,3771.35L23906.4,3771.35L23944.7,4068.68L23946.3,4068.68L24130.6,3719.16L24253.7,3719.16L23911,4297.93C23902.9,4311.9 23893.9,4325.42 23883.1,4337.47C23874.8,4346.69 23865.4,4354.87 23854.8,4361.31C23842.6,4368.78 23828.9,4373.71 23814.9,4376.74C23806,4378.65 23797,4379.78 23787.9,4380.6C23779.3,4381.4 23770.6,4381.85 23761.9,4382.11L23761.6,4382.12L23761.6,4382.33L22533.1,4382.33L22552.2,4291.57Z" transform="matrix(0.756381,0,0,0.69605,52224.6,8818.2) matrix(1.54982,0,0,1.54982,-31009.1,-2006)" style="fill:#df0253;fill-rule:nonzero"/></g><g><path d="M0.152,-0.209C0.152,-0.231 0.155,-0.255 0.161,-0.28C0.167,-0.305 0.176,-0.328 0.188,-0.349C0.2,-0.37 0.216,-0.388 0.235,-0.403C0.254,-0.417 0.276,-0.424 0.302,-0.424C0.34,-0.424 0.367,-0.414 0.383,-0.393C0.398,-0.372 0.406,-0.345 0.406,-0.31C0.406,-0.288 0.403,-0.264 0.397,-0.239C0.391,-0.214 0.382,-0.19 0.37,-0.169C0.357,-0.147 0.342,-0.129 0.323,-0.115C0.304,-0.1 0.281,-0.093 0.254,-0.093C0.237,-0.093 0.223,-0.096 0.21,-0.103C0.197,-0.109 0.187,-0.117 0.178,-0.128C0.169,-0.139 0.163,-0.151 0.159,-0.165C0.154,-0.179 0.152,-0.194 0.152,-0.209ZM0.01,-0.209C0.01,-0.135 0.032,-0.08 0.075,-0.043C0.118,-0.006 0.175,0.013 0.247,0.013C0.294,0.013 0.337,0.005 0.374,-0.012C0.411,-0.029 0.442,-0.052 0.468,-0.081C0.494,-0.11 0.514,-0.145 0.528,-0.185C0.541,-0.224 0.548,-0.267 0.548,-0.312C0.548,-0.349 0.542,-0.382 0.531,-0.409C0.519,-0.436 0.502,-0.459 0.481,-0.477C0.46,-0.495 0.434,-0.509 0.405,-0.518C0.375,-0.527 0.342,-0.531 0.307,-0.531C0.261,-0.531 0.22,-0.523 0.183,-0.506C0.146,-0.489 0.115,-0.465 0.09,-0.436C0.064,-0.407 0.044,-0.373 0.031,-0.334C0.017,-0.295 0.01,-0.253 0.01,-0.209Z" transform="matrix(0.756381,0,0,0.69605,52224.6,8818.2) matrix(1272,0,0,1200,6584.25,4476.12)" style="fill:#df0253;fill-rule:nonzero"/></g><g><path d="M57308.3,11654.7L57409,11654.7L57409,11679.6L57286.5,11679.6L57308.3,11654.7Z" transform="matrix(0.756381,0,0,0.69605,52224.6,8818.2) matrix(1.23243,0,0,1.23243,-63653.9,-10524.7)" style="fill:#df0253"/></g><g><path d="M57247.4,12184.4L57342,12184.4L57331.1,12155.5L57219.8,12159.3L57247.4,12184.4Z" transform="matrix(0.756381,0,0,0.69605,52224.6,8818.2) matrix(1.23243,0,0,1.23243,-63653.9,-10524.7)" style="fill:#df0253"/></g><g><path d="M0.096,-0.517L-0.011,0L0.13,0L0.188,-0.275C0.192,-0.293 0.198,-0.311 0.206,-0.328C0.213,-0.345 0.223,-0.361 0.235,-0.374C0.246,-0.387 0.26,-0.398 0.277,-0.407C0.293,-0.415 0.312,-0.419 0.333,-0.419C0.35,-0.419 0.365,-0.414 0.38,-0.404C0.394,-0.394 0.401,-0.381 0.401,-0.366C0.401,-0.359 0.4,-0.348 0.398,-0.335C0.395,-0.322 0.393,-0.311 0.392,-0.303L0.329,0L0.471,0L0.535,-0.303C0.536,-0.308 0.537,-0.314 0.539,-0.322C0.54,-0.329 0.542,-0.337 0.544,-0.346C0.545,-0.355 0.547,-0.363 0.548,-0.372C0.549,-0.38 0.55,-0.387 0.55,-0.392C0.55,-0.485 0.5,-0.531 0.399,-0.531C0.324,-0.531 0.264,-0.502 0.218,-0.445L0.216,-0.445L0.232,-0.517L0.096,-0.517Z" transform="matrix(0.756381,0,0,0.69605,52224.6,8818.2) matrix(1272,0,0,1200,7431.41,4476.12)" style="fill:#df0253;fill-rule:nonzero"/></g><g><path d="M58090.7,11654.7L58191.8,11654.7L58181.5,11691.7L58077.3,11675.5L58090.7,11654.7Z" transform="matrix(0.756381,0,0,0.69605,52224.6,8818.2) matrix(1.23243,0,0,1.23243,-63653.9,-10524.7)" style="fill:#df0253"/></g><g><path d="M29508,5729.64C29496.3,5758.2 29482.6,5783.19 29466.7,5804.61C29450.9,5826.03 29432,5844.05 29410,5858.65C29388,5873.26 29362.3,5884.13 29333.1,5891.27C29303.8,5898.41 29269.9,5901.98 29231.4,5901.98C29195.6,5901.98 29163.1,5897.44 29133.9,5888.35C29104.6,5879.26 29079.7,5865.47 29059.1,5846.97C29038.4,5828.47 29022.4,5805.59 29011.1,5778.32C28999.7,5751.06 28994,5719.25 28994,5682.9C28994,5642.66 29000.9,5603.87 29014.7,5566.55C29028.4,5529.22 29047.9,5496.12 29073,5467.23C29098.1,5438.35 29128.9,5415.3 29165.4,5398.1C29201.8,5380.9 29242.8,5372.3 29288.2,5372.3C29325.3,5372.3 29359.2,5376.84 29389.8,5385.93C29420.5,5395.02 29446.6,5408.81 29468.3,5427.31C29490,5445.81 29506.8,5468.85 29518.9,5496.44C29530.9,5524.03 29536.9,5556 29536.9,5592.35C29536.9,5617.02 29534.2,5643.31 29528.7,5671.22L29252.1,5671.22C29252.1,5671.22 29254.6,5657.87 29257.6,5641.6C29263.9,5607.97 29293.2,5583.59 29327.5,5583.59C29360.7,5583.59 29395.5,5583.59 29395.5,5583.59C29395.5,5570.6 29394.3,5557.78 29391.9,5545.12C29389.5,5532.47 29384.9,5520.94 29378,5510.56C29371.1,5500.17 29361.1,5491.9 29348,5485.73C29335,5479.56 29317.8,5476.48 29296.4,5476.48C29275.8,5476.48 29257.6,5479.4 29241.7,5485.24C29225.9,5491.09 29212.2,5498.88 29200.5,5508.61C29188.8,5518.35 29179,5529.71 29171,5542.69C29163.1,5555.67 29156.4,5569.31 29150.9,5583.59L29135.4,5671.22C29134.7,5674.46 29134.4,5677.38 29134.4,5679.98L29134.4,5700.43C29134.4,5729.64 29144,5753.33 29163.3,5771.51C29182.6,5789.68 29212.2,5798.77 29252.1,5798.77C29266.5,5798.77 29279.4,5796.66 29290.8,5792.44C29302.1,5788.22 29312.1,5782.87 29320.7,5776.38C29329.3,5769.88 29336.9,5762.42 29343.4,5753.98C29349.9,5745.54 29356,5737.43 29361.5,5729.64L29508,5729.64Z" transform="matrix(0.756381,0,0,0.69605,52224.6,8818.2) matrix(1.23243,0,0,1.23243,-30712.2,-2790.84)" style="fill:#df0253;fill-rule:nonzero"/></g><g><path d="M56017.2,11647.6L56132.6,11647.6L56132.6,11680L55975.1,11680L56017.2,11647.6Z" transform="matrix(0.756381,0,0,0.69605,52224.6,8818.2) matrix(1.23243,0,0,1.23243,-63653.9,-10524.7)" style="fill:#df0253"/></g><g><path d="M55975.1,12177.2L56053.9,12177.2L56053.9,12141.4L55967.1,12141.4L55975.1,12177.2Z" transform="matrix(0.756381,0,0,0.69605,52224.6,8818.2) matrix(1.23243,0,0,1.23243,-63665.6,-10524.7)" style="fill:#df0253"/></g><g><path d="M32347.1,12822.5C32282.8,12822.4 32233,12804.7 32197.7,12769.4C32162.3,12734.1 32144.5,12685.9 32144.5,12624.9C32144.5,12583.3 32150.4,12542.7 32162.1,12503.1C32173.8,12463.6 32191.7,12428.2 32215.8,12397C32239.8,12365.9 32270.1,12340.7 32306.6,12321.6C32343,12302.4 32386,12292.8 32435.6,12292.8L32605.7,12292.8L32646.1,12114.6C32658.5,12118.3 32670.8,12121.9 32683.2,12125.3C32696.3,12129 32709.3,12132.5 32722.1,12137C32733.1,12140.9 32743.8,12145.5 32754.4,12150.4C32763.6,12154.6 32772.7,12159.1 32781.7,12163.6L32729.4,12397L32435.6,12397L32435.6,12397.8C32414.5,12399.9 32395.7,12406.5 32379.3,12417.5C32359,12431.1 32342.4,12448.3 32329.3,12469.1C32316.2,12489.8 32306.6,12512.6 32300.4,12537.2C32294.2,12561.9 32291.1,12585.3 32291.1,12607.3C32291.1,12622.3 32293.3,12636.5 32297.8,12650.2C32302.3,12663.8 32308.8,12675.7 32317.4,12685.7C32326,12695.8 32336.9,12703.9 32349.9,12710.1C32362.6,12716 32377.2,12719.1 32393.7,12719.3L32393.7,12719.3L32657.1,12719.3L32637.7,12806.1L32634.1,12822.5L32347.9,12822.5L32347.1,12822.5Z" transform="matrix(0.756381,0,0,0.69605,52224.6,8818.2) matrix(1.23243,0,0,1.23243,-31301.8,-11311.2)" style="fill:#df0253"/></g><g><path d="M28597.3,5456.69C28608.1,5456.62 28618.9,5455.64 28629.5,5453.41C28643.3,5450.51 28656.6,5445.51 28668.8,5438.41C28674.1,5435.34 28679.2,5431.94 28683.9,5428.02C28688.4,5424.25 28692.5,5419.99 28696.1,5415.3C28702.3,5407.02 28706.8,5397.48 28709.4,5387.45C28711.7,5378.57 28712.7,5369.36 28712.8,5360.19C28712.8,5354.02 28712.5,5347.84 28711.6,5341.73C28710.1,5331.18 28706.9,5320.62 28700.6,5311.88C28699.6,5310.5 28698.5,5309.18 28697.4,5307.92C28695.9,5306.22 28694.3,5304.64 28692.5,5303.18C28690,5301.12 28687.3,5299.37 28684.5,5297.76C28680.7,5295.52 28676.6,5293.61 28672.4,5292C28665.7,5289.43 28658.8,5287.61 28651.7,5286.35C28641.8,5284.58 28631.8,5283.91 28621.7,5283.9L28273.6,5283.9L28301.5,5157.66L28630.5,5157.66C28670,5157.66 28705.5,5160.08 28736.9,5164.91C28768.4,5169.74 28795,5178.53 28817,5191.29C28838.9,5204.05 28855.7,5221.64 28867.4,5244.06C28879.1,5266.48 28885,5295.28 28885,5330.46C28885,5351.15 28881.7,5371.33 28875.1,5390.99C28868.5,5410.65 28858.8,5428.24 28846,5443.76C28833.2,5459.28 28817.9,5472.21 28800,5482.56C28782.1,5492.91 28761.4,5499.46 28738,5502.22L28738,5504.29C28775.3,5513.95 28804,5532.4 28824.1,5559.65C28844.2,5586.89 28854.3,5618.45 28854.3,5654.32C28854.3,5694.33 28846,5729.51 28829.6,5759.86C28813.1,5790.21 28791,5815.39 28763.2,5835.39C28735.4,5855.4 28703.6,5870.57 28667.8,5880.92C28632,5891.27 28594.3,5896.44 28554.8,5896.44L28138.1,5896.44L28235.3,5456.69L28596.5,5456.69L28597.3,5456.69ZM28547.2,5770.2C28586.7,5770.2 28619,5760.2 28644.2,5740.2C28669.5,5720.19 28682.1,5690.53 28682.1,5651.22C28682.1,5631.9 28677.9,5616.73 28669.5,5605.69C28661,5594.65 28650.3,5586.2 28637.1,5580.34C28623.9,5574.48 28609.3,5570.85 28593.2,5569.47C28577.1,5568.1 28561.4,5567.4 28546.1,5567.4L28377.2,5567.4L28331.1,5770.2L28547.2,5770.2Z" transform="matrix(0.756381,0,0,0.69605,52224.6,8818.2) matrix(1.23243,0,0,1.23243,-30712.2,-2790.84)" style="fill:#df0253;fill-rule:nonzero"/></g><g transform="matrix(0.756381,0,0,0.69605,52224.6,8818.2) matrix(1.23243,0,0,1.23243,-30730.8,-2820.43)"><circle cx="29738" cy="5261.62" r="76.171" style="fill:#df0253"/></g><g><path d="M56451.9,11436.7L56551.1,11436.7L56551.1,11589L56451.9,11589L56451.9,11436.7Z" transform="matrix(0.756381,0,0,0.69605,52224.6,8818.2) matrix(1.23243,0,0,1.23243,-63653.9,-10524.7)" style="fill:#df0253"/></g><g><path d="M58705.4,5505.04L58633.2,5826.05L58493,5895.23L58582.3,5404.7L58705.4,5505.04Z" transform="matrix(0.756381,0,0,0.69605,52224.6,8818.2) matrix(1.23243,0,0,1.23243,-63315.4,-2817.26)" style="fill:#df0253"/></g><g><path d="M32299.2,5268.75L32276,5372.3L32128.9,5372.3L32151.7,5271.8L30396.1,5271.8C30396.1,5271.8 30350.6,5272.16 30343.8,5271.8L30327.5,5271.8C30318.7,5272.28 30311.6,5275.17 30303.2,5277.94C30298.9,5279.36 30294.8,5281.29 30290.9,5283.45C30285,5286.66 30279.3,5290.47 30274.4,5295.01C30272.4,5296.81 30270.6,5298.73 30268.8,5300.71C30266.8,5302.86 30265,5305.07 30263.2,5307.36C30260.8,5310.49 30260.9,5310.51 30258.8,5313.89C30257.1,5316.72 30253,5322.88 30251.3,5325.7C30250.4,5327.11 30244.4,5332.47 30238.6,5342.07L30104,5313.78L30134.8,5263.8C30145,5246.23 30156.3,5229.22 30169.9,5214.07C30180.3,5202.48 30192.1,5192.19 30205.4,5184.1C30220.9,5174.7 30238.1,5168.5 30255.7,5164.69C30266.8,5162.29 30278.2,5160.87 30289.5,5159.83C30300.4,5158.84 30311.3,5158.26 30322.3,5157.94L30322.7,5157.93L30322.7,5157.66L32251.4,5157.66C32269.2,5157.66 32286,5165.78 32297.1,5179.7C32308.2,5193.62 32312.3,5211.83 32308.3,5229.16C32303.3,5250.7 32299.2,5268.75 32299.2,5268.75Z" transform="matrix(0.756381,0,0,0.69605,52224.6,8818.2) matrix(1.23243,0,0,1.23243,-30712.2,-2790.84)" style="fill:#df0253;fill-rule:nonzero"/></g></g><g><g><path d="M22552.2,4291.57L23703.2,4291.57C23703.2,4291.57 23739.3,4291.28 23744.8,4291.57L23757.7,4291.57L23757.8,4291.56C23764.8,4291.18 23771.8,4290.26 23778.5,4288.05C23781.9,4286.92 23785.1,4285.38 23788.2,4283.67C23792.9,4281.11 23797.4,4278.09 23801.4,4274.48C23802.9,4273.04 23804.4,4271.51 23805.8,4269.94C23807.4,4268.23 23808.8,4266.47 23810.3,4264.65C23812.2,4262.16 23814,4259.56 23815.7,4256.88C23817,4254.63 23818.3,4252.31 23819.7,4250.07C23822.3,4245.98 23860.4,4182.35 23863.5,4178.62L23786.5,3771.35L23906.4,3771.35L23944.7,4068.68L23946.3,4068.68L24130.6,3719.16L24253.7,3719.16L23911,4297.93C23902.9,4311.9 23893.9,4325.42 23883.1,4337.47C23874.8,4346.69 23865.4,4354.87 23854.8,4361.31C23842.6,4368.78 23828.9,4373.71 23814.9,4376.74C23806,4378.65 23797,4379.78 23787.9,4380.6C23779.3,4381.4 23770.6,4381.85 23761.9,4382.11L23761.6,4382.12L23761.6,4382.33L22533.1,4382.33L22552.2,4291.57Z" transform="matrix(0.756381,0,0,0.69605,52316.9,8818.2) matrix(1.54982,0,0,1.54982,-31009.1,-2006)" style="fill:#fff;fill-rule:nonzero"/></g><g><path d="M0.152,-0.209C0.152,-0.231 0.155,-0.255 0.161,-0.28C0.167,-0.305 0.176,-0.328 0.188,-0.349C0.2,-0.37 0.216,-0.388 0.235,-0.403C0.254,-0.417 0.276,-0.424 0.302,-0.424C0.34,-0.424 0.367,-0.414 0.383,-0.393C0.398,-0.372 0.406,-0.345 0.406,-0.31C0.406,-0.288 0.403,-0.264 0.397,-0.239C0.391,-0.214 0.382,-0.19 0.37,-0.169C0.357,-0.147 0.342,-0.129 0.323,-0.115C0.304,-0.1 0.281,-0.093 0.254,-0.093C0.237,-0.093 0.223,-0.096 0.21,-0.103C0.197,-0.109 0.187,-0.117 0.178,-0.128C0.169,-0.139 0.163,-0.151 0.159,-0.165C0.154,-0.179 0.152,-0.194 0.152,-0.209ZM0.01,-0.209C0.01,-0.135 0.032,-0.08 0.075,-0.043C0.118,-0.006 0.175,0.013 0.247,0.013C0.294,0.013 0.337,0.005 0.374,-0.012C0.411,-0.029 0.442,-0.052 0.468,-0.081C0.494,-0.11 0.514,-0.145 0.528,-0.185C0.541,-0.224 0.548,-0.267 0.548,-0.312C0.548,-0.349 0.542,-0.382 0.531,-0.409C0.519,-0.436 0.502,-0.459 0.481,-0.477C0.46,-0.495 0.434,-0.509 0.405,-0.518C0.375,-0.527 0.342,-0.531 0.307,-0.531C0.261,-0.531 0.22,-0.523 0.183,-0.506C0.146,-0.489 0.115,-0.465 0.09,-0.436C0.064,-0.407 0.044,-0.373 0.031,-0.334C0.017,-0.295 0.01,-0.253 0.01,-0.209Z" transform="matrix(0.756381,0,0,0.69605,52316.9,8818.2) matrix(1272,0,0,1200,6584.25,4476.12)" style="fill:#fff;fill-rule:nonzero"/></g><g><path d="M0.096,-0.517L-0.011,0L0.13,0L0.188,-0.275C0.192,-0.293 0.198,-0.311 0.206,-0.328C0.213,-0.345 0.223,-0.361 0.235,-0.374C0.246,-0.387 0.26,-0.398 0.277,-0.407C0.293,-0.415 0.312,-0.419 0.333,-0.419C0.35,-0.419 0.365,-0.414 0.38,-0.404C0.394,-0.394 0.401,-0.381 0.401,-0.366C0.401,-0.359 0.4,-0.348 0.398,-0.335C0.395,-0.322 0.393,-0.311 0.392,-0.303L0.329,0L0.471,0L0.535,-0.303C0.536,-0.308 0.537,-0.314 0.539,-0.322C0.54,-0.329 0.542,-0.337 0.544,-0.346C0.545,-0.355 0.547,-0.363 0.548,-0.372C0.549,-0.38 0.55,-0.387 0.55,-0.392C0.55,-0.485 0.5,-0.531 0.399,-0.531C0.324,-0.531 0.264,-0.502 0.218,-0.445L0.216,-0.445L0.232,-0.517L0.096,-0.517Z" transform="matrix(0.756381,0,0,0.69605,52316.9,8818.2) matrix(1272,0,0,1200,7431.41,4476.12)" style="fill:#fff;fill-rule:nonzero"/></g><g><path d="M29508,5729.64C29496.3,5758.2 29482.6,5783.19 29466.7,5804.61C29450.9,5826.03 29432,5844.05 29410,5858.65C29388,5873.26 29362.3,5884.13 29333.1,5891.27C29303.8,5898.41 29269.9,5901.98 29231.4,5901.98C29195.6,5901.98 29163.1,5897.44 29133.9,5888.35C29104.6,5879.26 29079.7,5865.47 29059.1,5846.97C29038.4,5828.47 29022.4,5805.59 29011.1,5778.32C28999.7,5751.06 28994,5719.25 28994,5682.9C28994,5642.66 29000.9,5603.87 29014.7,5566.55C29028.4,5529.22 29047.9,5496.12 29073,5467.23C29098.1,5438.35 29128.9,5415.3 29165.4,5398.1C29201.8,5380.9 29242.8,5372.3 29288.2,5372.3C29325.3,5372.3 29359.2,5376.84 29389.8,5385.93C29420.5,5395.02 29446.6,5408.81 29468.3,5427.31C29490,5445.81 29506.8,5468.85 29518.9,5496.44C29530.9,5524.03 29536.9,5556 29536.9,5592.35C29536.9,5617.02 29534.2,5643.31 29528.7,5671.22L29252.1,5671.22C29252.1,5671.22 29254.6,5657.87 29257.6,5641.6C29263.9,5607.97 29293.2,5583.59 29327.5,5583.59C29360.7,5583.59 29395.5,5583.59 29395.5,5583.59C29395.5,5570.6 29394.3,5557.78 29391.9,5545.12C29389.5,5532.47 29384.9,5520.94 29378,5510.56C29371.1,5500.17 29361.1,5491.9 29348,5485.73C29335,5479.56 29317.8,5476.48 29296.4,5476.48C29275.8,5476.48 29257.6,5479.4 29241.7,5485.24C29225.9,5491.09 29212.2,5498.88 29200.5,5508.61C29188.8,5518.35 29179,5529.71 29171,5542.69C29163.1,5555.67 29156.4,5569.31 29150.9,5583.59L29135.4,5671.22C29134.7,5674.46 29134.4,5677.38 29134.4,5679.98L29134.4,5700.43C29134.4,5729.64 29144,5753.33 29163.3,5771.51C29182.6,5789.68 29212.2,5798.77 29252.1,5798.77C29266.5,5798.77 29279.4,5796.66 29290.8,5792.44C29302.1,5788.22 29312.1,5782.87 29320.7,5776.38C29329.3,5769.88 29336.9,5762.42 29343.4,5753.98C29349.9,5745.54 29356,5737.43 29361.5,5729.64L29508,5729.64Z" transform="matrix(0.756381,0,0,0.69605,52316.9,8818.2) matrix(1.23243,0,0,1.23243,-30712.2,-2790.84)" style="fill:#fff;fill-rule:nonzero"/></g><g><path d="M32347.1,12822.5C32282.8,12822.4 32233,12804.7 32197.7,12769.4C32162.3,12734.1 32144.5,12685.9 32144.5,12624.9C32144.5,12583.3 32150.4,12542.7 32162.1,12503.1C32173.8,12463.6 32191.7,12428.2 32215.8,12397C32239.8,12365.9 32270.1,12340.7 32306.6,12321.6C32343,12302.4 32386,12292.8 32435.6,12292.8L32605.7,12292.8L32646.1,12114.6C32658.5,12118.3 32670.8,12121.9 32683.2,12125.3C32696.3,12129 32709.3,12132.5 32722.1,12137C32733.1,12140.9 32743.8,12145.5 32754.4,12150.4C32763.6,12154.6 32772.7,12159.1 32781.7,12163.6L32729.4,12397L32435.6,12397L32435.6,12397.8C32414.5,12399.9 32395.7,12406.5 32379.3,12417.5C32359,12431.1 32342.4,12448.3 32329.3,12469.1C32316.2,12489.8 32306.6,12512.6 32300.4,12537.2C32294.2,12561.9 32291.1,12585.3 32291.1,12607.3C32291.1,12622.3 32293.3,12636.5 32297.8,12650.2C32302.3,12663.8 32308.8,12675.7 32317.4,12685.7C32326,12695.8 32336.9,12703.9 32349.9,12710.1C32362.6,12716 32377.2,12719.1 32393.7,12719.3L32393.7,12719.3L32657.1,12719.3L32637.7,12806.1L32634.1,12822.5L32347.9,12822.5L32347.1,12822.5Z" transform="matrix(0.756381,0,0,0.69605,52316.9,8818.2) matrix(1.23243,0,0,1.23243,-31301.8,-11311.2)" style="fill:#fff"/></g><g><path d="M28597.3,5456.69C28608.1,5456.62 28618.9,5455.64 28629.5,5453.41C28643.3,5450.51 28656.6,5445.51 28668.8,5438.41C28674.1,5435.34 28679.2,5431.94 28683.9,5428.02C28688.4,5424.25 28692.5,5419.99 28696.1,5415.3C28702.3,5407.02 28706.8,5397.48 28709.4,5387.45C28711.7,5378.57 28712.7,5369.36 28712.8,5360.19C28712.8,5354.02 28712.5,5347.84 28711.6,5341.73C28710.1,5331.18 28706.9,5320.62 28700.6,5311.88C28699.6,5310.5 28698.5,5309.18 28697.4,5307.92C28695.9,5306.22 28694.3,5304.64 28692.5,5303.18C28690,5301.12 28687.3,5299.37 28684.5,5297.76C28680.7,5295.52 28676.6,5293.61 28672.4,5292C28665.7,5289.43 28658.8,5287.61 28651.7,5286.35C28641.8,5284.58 28631.8,5283.91 28621.7,5283.9L28273.6,5283.9L28301.5,5157.66L28630.5,5157.66C28670,5157.66 28705.5,5160.08 28736.9,5164.91C28768.4,5169.74 28795,5178.53 28817,5191.29C28838.9,5204.05 28855.7,5221.64 28867.4,5244.06C28879.1,5266.48 28885,5295.28 28885,5330.46C28885,5351.15 28881.7,5371.33 28875.1,5390.99C28868.5,5410.65 28858.8,5428.24 28846,5443.76C28833.2,5459.28 28817.9,5472.21 28800,5482.56C28782.1,5492.91 28761.4,5499.46 28738,5502.22L28738,5504.29C28775.3,5513.95 28804,5532.4 28824.1,5559.65C28844.2,5586.89 28854.3,5618.45 28854.3,5654.32C28854.3,5694.33 28846,5729.51 28829.6,5759.86C28813.1,5790.21 28791,5815.39 28763.2,5835.39C28735.4,5855.4 28703.6,5870.57 28667.8,5880.92C28632,5891.27 28594.3,5896.44 28554.8,5896.44L28138.1,5896.44L28235.3,5456.69L28596.5,5456.69L28597.3,5456.69ZM28547.2,5770.2C28586.7,5770.2 28619,5760.2 28644.2,5740.2C28669.5,5720.19 28682.1,5690.53 28682.1,5651.22C28682.1,5631.9 28677.9,5616.73 28669.5,5605.69C28661,5594.65 28650.3,5586.2 28637.1,5580.34C28623.9,5574.48 28609.3,5570.85 28593.2,5569.47C28577.1,5568.1 28561.4,5567.4 28546.1,5567.4L28377.2,5567.4L28331.1,5770.2L28547.2,5770.2Z" transform="matrix(0.756381,0,0,0.69605,52316.9,8818.2) matrix(1.23243,0,0,1.23243,-30712.2,-2790.84)" style="fill:#fff;fill-rule:nonzero"/></g><g transform="matrix(0.756381,0,0,0.69605,52316.9,8818.2) matrix(1.23243,0,0,1.23243,-30730.8,-2820.43)"><circle cx="29738" cy="5261.62" r="76.171" style="fill:#fff"/></g><g><path d="M58705.4,5505.04L58633.2,5826.05L58493,5895.23L58582.3,5404.7L58705.4,5505.04Z" transform="matrix(0.756381,0,0,0.69605,52316.9,8818.2) matrix(1.23243,0,0,1.23243,-63315.4,-2817.26)" style="fill:#fff"/></g><g><path d="M32299.2,5268.75L32276,5372.3L32128.9,5372.3L32151.7,5271.8L30396.1,5271.8C30396.1,5271.8 30350.6,5272.16 30343.8,5271.8L30327.5,5271.8C30318.7,5272.28 30311.6,5275.17 30303.2,5277.94C30298.9,5279.36 30294.8,5281.29 30290.9,5283.45C30285,5286.66 30279.3,5290.47 30274.4,5295.01C30272.4,5296.81 30270.6,5298.73 30268.8,5300.71C30266.8,5302.86 30265,5305.07 30263.2,5307.36C30260.8,5310.49 30260.9,5310.51 30258.8,5313.89C30257.1,5316.72 30253,5322.88 30251.3,5325.7C30250.4,5327.11 30244.4,5332.47 30238.6,5342.07L30104,5313.78L30134.8,5263.8C30145,5246.23 30156.3,5229.22 30169.9,5214.07C30180.3,5202.48 30192.1,5192.19 30205.4,5184.1C30220.9,5174.7 30238.1,5168.5 30255.7,5164.69C30266.8,5162.29 30278.2,5160.87 30289.5,5159.83C30300.4,5158.84 30311.3,5158.26 30322.3,5157.94L30322.7,5157.93L30322.7,5157.66L32251.4,5157.66C32269.2,5157.66 32286,5165.78 32297.1,5179.7C32308.2,5193.62 32312.3,5211.83 32308.3,5229.16C32303.3,5250.7 32299.2,5268.75 32299.2,5268.75Z" transform="matrix(0.756381,0,0,0.69605,52316.9,8818.2) matrix(1.23243,0,0,1.23243,-30712.2,-2790.84)" style="fill:#fff;fill-rule:nonzero"/></g></g></g></g></svg>